<?xml version="1.0" standalone="no"?><!DOCTYPE svg PUBLIC "-//W3C//DTD SVG 1.1//EN" "http://www.w3.org/Graphics/SVG/1.1/DTD/svg11.dtd"><svg t="1760060466631" class="icon" viewBox="0 0 1024 1024" version="1.1" xmlns="http://www.w3.org/2000/svg" p-id="8534" xmlns:xlink="http://www.w3.org/1999/xlink" width="200" height="200"><path d="M139.636364 674.909091v139.636364a69.818182 69.818182 0 0 0 65.722181 69.701818L209.454545 884.363636h139.636364v69.818182H209.454545a139.636364 139.636364 0 0 1-139.636363-139.636363v-139.636364h69.818182z m814.545454 0v139.636364a139.636364 139.636364 0 0 1-139.636363 139.636363h-139.636364v-69.818182h139.636364a69.818182 69.818182 0 0 0 69.701818-65.722181L884.363636 814.545455v-139.636364h69.818182z m-185.716363-406.272c2.513455 6.050909 2.443636 12.846545-0.186182 18.850909l-216.855273 495.010909a14.592 14.592 0 1 1-27.252364-1.28l-39.214545-123.275636a93.090909 93.090909 0 0 1 12.706909-81.966546l101.771636-143.872-158.440727 92.578909a93.090909 93.090909 0 0 1-78.289454 7.284364l-120.413091-43.054545a14.592 14.592 0 1 1-0.581819-27.112728l495.383273-206.103272c12.218182-5.12 26.298182 0.698182 31.371637 12.939636zM349.090909 69.818182v69.818182H209.454545a69.818182 69.818182 0 0 0-69.701818 65.722181L139.636364 209.454545v139.636364H69.818182V209.454545a139.636364 139.636364 0 0 1 139.636363-139.636363h139.636364z m465.454546 0a139.636364 139.636364 0 0 1 139.636363 139.636363v139.636364h-69.818182V209.454545a69.818182 69.818182 0 0 0-65.722181-69.701818L814.545455 139.636364h-139.636364V69.818182h139.636364z" fill="#666666" p-id="8535"></path></svg>