<?xml version="1.0" standalone="no"?><!DOCTYPE svg PUBLIC "-//W3C//DTD SVG 1.1//EN" "http://www.w3.org/Graphics/SVG/1.1/DTD/svg11.dtd"><svg t="1758603464780" class="icon" viewBox="0 0 1024 1024" version="1.1" xmlns="http://www.w3.org/2000/svg" p-id="4878" xmlns:xlink="http://www.w3.org/1999/xlink" width="200" height="200"><path d="M716.09032 734.492034l-52.733037-30.646214 24.855157-14.350449 52.733038 30.646214-24.855158 14.350449z" fill="#DB0000" p-id="4879"></path><path d="M686.461656 738.203099l-52.733038-30.646214 0.22446 0.134675 52.733037 30.646215-0.224459-0.134676" fill="#9E0000" p-id="4880"></path><path d="M686.686115 738.337775l-52.733037-30.646215a20.066686 20.066686 0 0 0 1.975244 0.972659L688.631432 739.310433c-0.658415-0.284315-1.31683-0.613523-1.975245-0.972658" fill="#A30000" p-id="4881"></path><path d="M688.631432 739.310433l-52.733038-30.646214a17.118784 17.118784 0 0 0 1.855533 0.628486l52.733037 30.646215a17.118784 17.118784 0 0 1-1.855532-0.658415" fill="#A80000" p-id="4882"></path><path d="M690.516892 739.968848L637.753927 709.292705a18.315902 18.315902 0 0 0 1.795677 0.404028l52.733037 30.646214a18.315902 18.315902 0 0 1-1.795677-0.404027" fill="#AD0000" p-id="4883"></path><path d="M692.312569 740.372875l-52.733038-30.646214 0.957695 0.149639 1.256973 0.104748 52.733038 30.646215-1.256974-0.104748-0.957694-0.14964" fill="#B30000" p-id="4884"></path><path d="M694.527237 740.627263l-52.733038-30.646215a26.48623 26.48623 0 0 0 2.888047 0L697.415283 740.717047a26.48623 26.48623 0 0 1-2.888046 0" fill="#B80000" p-id="4885"></path><path d="M697.415283 740.717047l-52.733037-30.646215a29.449097 29.449097 0 0 0 3.187326-0.314243L700.602609 740.342947a29.449097 29.449097 0 0 1-3.187326 0.314244" fill="#BD0000" p-id="4886"></path><path d="M700.602609 740.342947l-52.733037-30.646214a35.419722 35.419722 0 0 0 3.770921-0.808055l52.733037 30.646215a35.419722 35.419722 0 0 1-3.770921 0.808054" fill="#C20000" p-id="4887"></path><path d="M704.37353 739.534893l-52.733037-30.646215a41.240707 41.240707 0 0 0 5.102714-1.750785L709.476245 737.724252a41.240707 41.240707 0 0 1-5.102715 1.750785" fill="#C70000" p-id="4888"></path><path d="M709.476245 737.724252l-52.733038-30.646214a55.366696 55.366696 0 0 0 6.614076-3.292074l52.733037 30.646214a57.775896 57.775896 0 0 1-6.614075 3.292074" fill="#CC0000" p-id="4889"></path><path d="M430.353275 899.469825l-52.733037-30.646214 25.034725-14.455197 52.733037 30.646214-25.034725 14.455197z" fill="#DB0000" p-id="4890"></path><path d="M400.814395 904.542612L348.081357 873.896397h0.14964l52.733037 30.646215h-0.149639" fill="#9E0000" p-id="4891"></path><path d="M400.964034 904.617432l-52.733037-30.646215a13.153331 13.153331 0 0 0 1.301866 0.643451L402.2659 905.320738a13.153331 13.153331 0 0 1-1.301866-0.643451" fill="#A30000" p-id="4892"></path><path d="M402.2659 905.320738l-52.733037-30.70607a9.45723 9.45723 0 0 0 0.912802 0.329207l0.673379 0.22446 52.733037 30.63125-0.673379-0.209495-0.912802-0.329208" fill="#A80000" p-id="4893"></path><path d="M403.852081 905.799585l-52.733037-30.63125a15.517639 15.517639 0 0 0 1.915388 0.433955L405.812361 906.248505a15.547567 15.547567 0 0 1-1.915388-0.44892" fill="#AD0000" p-id="4894"></path><path d="M405.812361 906.248505l-52.777929-30.646215c0.688343 0.119712 1.376685 0.194532 2.094956 0.254387l52.733037 30.631251a19.079064 19.079064 0 0 1-2.094956-0.239423" fill="#B30000" p-id="4895"></path><path d="M407.862425 906.487928l-52.733037-30.631251h2.379272L410.301553 906.517856a20.949561 20.949561 0 0 1-2.379272 0" fill="#B80000" p-id="4896"></path><path d="M410.301553 906.517856l-52.792893-30.646215a26.740618 26.740618 0 0 0 2.813226-0.284315l52.733038 30.646215a26.740618 26.740618 0 0 1-2.813227 0.284315" fill="#BD0000" p-id="4897"></path><path d="M413.054924 906.233541l-52.733038-30.646215a34.611667 34.611667 0 0 0 3.606318-0.763163l52.733037 30.646215a34.611667 34.611667 0 0 1-3.606317 0.763163" fill="#C20000" p-id="4898"></path><path d="M416.661241 905.470378L363.91324 874.824163a47.540539 47.540539 0 0 0 5.46185-1.88546l52.733037 30.646215a47.540539 47.540539 0 0 1-5.46185 1.88546" fill="#C70000" p-id="4899"></path><path d="M422.123091 903.584918l-52.733037-30.646215a71.423038 71.423038 0 0 0 8.230184-4.115092l52.733037 30.646214a71.423038 71.423038 0 0 1-8.230184 4.115093" fill="#CC0000" p-id="4900"></path><path d="M288.300289 981.487356l-52.733037-30.646215a98.358188 98.358188 0 0 0 20.066687-14.829296L308.366976 966.673023a98.358188 98.358188 0 0 1-20.066687 14.829297" fill="#CC0000" p-id="4901"></path><path d="M308.366976 966.673023l-52.733037-30.661178c1.197118-1.16719 2.304452-2.349344 3.351929-3.561426l52.733038 30.646215c-1.047478 1.197118-2.154812 2.394236-3.35193 3.561425" fill="#C70000" p-id="4902"></path><path d="M311.718906 963.096634l-52.733038-30.646215c0.718271-0.823018 1.391649-1.646037 2.0351-2.484019L313.754006 960.687435c-0.643451 0.837982-1.31683 1.661001-2.0351 2.484019" fill="#C20000" p-id="4903"></path><path d="M313.754006 960.687435l-52.733038-30.721035c0.523739-0.658415 1.01755-1.331794 1.496398-2.005172l52.733037 30.646214c-0.463883 0.673379-0.957694 1.346757-1.496397 2.005173" fill="#BD0000" p-id="4904"></path><path d="M315.235439 958.607442l-52.733037-30.646214c0.418991-0.583595 0.823018-1.182154 1.197117-1.780713l52.733038 30.646215c-0.374099 0.598559-0.778127 1.197118-1.197118 1.780712" fill="#B80000" p-id="4905"></path><path d="M316.432557 956.82673L263.654628 926.180515c0.344171-0.538703 0.673379-1.077406 1.002586-1.631073l52.733037 30.646215c-0.329207 0.553667-0.658415 1.09237-1.002586 1.631073" fill="#B30000" p-id="4906"></path><path d="M317.435143 955.195657L264.702106 924.549442v-0.119712c0.359135-0.598559 0.688343-1.212082 1.01755-1.825604L318.512549 953.205449c-0.329207 0.613523-0.658415 1.227046-1.01755 1.825604v0.119712" fill="#AD0000" p-id="4907"></path><path d="M318.512549 953.205449l-52.733037-30.601323q0.538703-1.002586 1.032514-2.020136l52.733037 30.63125c-0.329207 0.688343-0.673379 1.361721-1.032514 2.035101" fill="#A80000" p-id="4908"></path><path d="M319.545063 951.21524L266.812026 920.58399c0.329207-0.703307 0.658415-1.406613 0.972658-2.124884L320.517721 949.10532c-0.314243 0.718271-0.643451 1.496397-0.972658 2.10992" fill="#A30000" p-id="4909"></path><path d="M320.517721 949.10532l-52.733037-30.646214c0.314243-0.748199 0.628487-1.496397 0.927766-2.289488l52.733037 30.646215c-0.299279 0.763163-0.613523 1.496397-0.927766 2.289487" fill="#9E0000" p-id="4910"></path><path d="M321.445487 946.815833l-52.733037-30.646215c0.329207-0.837982 0.628487-1.690929 0.912802-2.543875L322.35829 944.227065a51.476064 51.476064 0 0 1-0.912803 2.543876" fill="#990000" p-id="4911"></path><path d="M322.35829 944.227065L269.640216 913.625743c0.329207-0.987622 0.643451-1.990208 0.912803-2.992795L323.271092 941.234271a52.972461 52.972461 0 0 1-0.912802 2.992794" fill="#940000" p-id="4912"></path><path d="M323.271092 941.234271L270.538055 910.632948c0.344171-1.24201 0.658415-2.513947 0.927766-3.800849l52.733037 30.646215c-0.269351 1.286902-0.583595 2.558839-0.927766 3.800849" fill="#8F0000" p-id="4913"></path><path d="M324.198858 937.478314L271.465821 906.817135c0.389063-1.795677 0.703307-3.651209 0.957694-5.536669l52.733037 30.661178c-0.254388 1.88546-0.568631 3.740993-0.957694 5.53667" fill="#8A0000" p-id="4914"></path><path d="M325.156552 931.941644l-52.733037-30.646214a82.301846 82.301846 0 0 0 0.628487-10.325141l52.733037 30.646215a82.481414 82.481414 0 0 1-0.628487 10.32514" fill="#850000" p-id="4915"></path><path d="M263.32542 1024L210.592383 993.368749l-0.07482-28.072411 52.733037 30.646215 0.07482 28.057447z" fill="#880000" p-id="4916"></path><path d="M263.2506 995.942553L210.517563 965.296338l25.049689-14.455197 52.733037 30.631251-25.049689 14.470161z" fill="#DB0000" p-id="4917"></path><path d="M624.795127 815.312447l-52.733037-30.646215-145.524628-326.513868 52.733038 30.646214 145.524627 326.513869z" fill="#800000" p-id="4918"></path><path d="M391.596588 511.319356l-52.733037-30.646214 91.355049-52.748002 52.733037 30.646215-91.355049 52.748001z" fill="#DB0000" p-id="4919"></path><path d="M482.951637 458.571355L430.2186 427.970032a277.222545 277.222545 0 0 0 56.62367-43.275807l52.733037 30.646215a277.222545 277.222545 0 0 1-56.62367 43.275807" fill="#CC0000" p-id="4920"></path><path d="M539.575307 415.295548l-52.733037-30.646214q7.960833-7.856085 15.427855-16.46037l52.733037 30.646215q-7.481986 8.574356-15.427855 16.460369" fill="#C70000" p-id="4921"></path><path d="M555.003162 398.850143l-52.733037-30.646215q5.716237-6.584148 11.133195-13.572322l52.733037 30.646214q-5.416958 7.003139-11.133195 13.572323" fill="#C20000" p-id="4922"></path><path d="M566.136357 385.27782L513.40332 354.64657c3.187326-4.115092 6.299832-8.319968 9.337518-12.659521L575.473876 372.603336q-4.489192 6.494364-9.337519 12.65952" fill="#BD0000" p-id="4923"></path><path d="M575.473876 372.603336l-52.733038-30.646215q4.264732-6.090337 8.349897-12.450024L583.883628 360.168275q-4.0702 6.374652-8.334933 12.450025" fill="#B80000" p-id="4924"></path><path d="M583.883628 360.168275l-52.718073-30.646214c0.957694-1.496397 1.900424-2.992794 2.843154-4.489192 1.16719-1.870496 2.304452-3.770921 3.411786-5.671345l52.733037 30.646214c-1.107334 1.900424-2.244596 3.800849-3.411786 5.671346-0.94273 1.496397-1.88546 2.992794-2.858118 4.489191" fill="#B30000" p-id="4925"></path><path d="M590.078712 349.947883l-52.733037-30.646215c1.720857-2.992794 3.366894-5.895805 4.968039-8.903563l52.733037 30.646214c-1.601145 2.992794-3.247182 5.985589-4.968039 8.978383" fill="#AD0000" p-id="4926"></path><path d="M595.046751 341.044319l-52.733037-30.646214q2.379272-4.489192 4.608903-9.098095l52.733037 30.646214c-1.496397 2.992794-2.992794 6.090337-4.608903 9.098095" fill="#A80000" p-id="4927"></path><path d="M599.655654 331.946224l-52.733037-30.646214q2.25956-4.713651 4.354516-9.547014l52.733037 30.646214q-2.094956 4.833363-4.354516 9.547014" fill="#A30000" p-id="4928"></path><path d="M604.01017 322.39921L551.277133 291.797887c1.496397-3.381858 2.873083-6.823571 4.21984-10.295212l52.733037 30.646214c-1.346757 3.471641-2.738407 6.913355-4.21984 10.295213" fill="#9E0000" p-id="4929"></path><path d="M608.23001 312.103997L555.452081 281.457783c1.496397-3.800849 2.843155-7.64659 4.14502-11.552187L612.315175 300.551811c-1.301866 3.905597-2.693515 7.751337-4.145021 11.552186" fill="#990000" p-id="4930"></path><path d="M612.315175 300.551811l-52.673182-30.646215q2.214668-6.688895 4.130056-13.557358l52.733038 30.63125q-1.915388 6.883427-4.130057 13.572323" fill="#940000" p-id="4931"></path><path d="M616.505087 286.979488l-52.733038-30.63125q2.33438-8.43968 4.204877-17.133748l52.733037 30.646215q-1.870496 8.694068-4.204876 17.118783" fill="#8F0000" p-id="4932"></path><path d="M620.709963 269.860705l-52.733037-30.646215q2.603731-12.255493 4.264732-25.064653l52.733037 30.646214q-1.661001 12.794196-4.264732 25.064654" fill="#8A0000" p-id="4933"></path><path d="M624.974695 244.796051l-52.733037-30.646214a359.240075 359.240075 0 0 0 2.858118-46.971908q-0.194532-81.22444-37.754101-105.047083c-0.553667-0.359135-1.107334-0.688343-1.661001-1.017551L588.372819 91.75951c0.553667 0.329207 1.107334 0.658415 1.661001 1.01755q37.514678 23.792715 37.754102 105.047083a359.240075 359.240075 0 0 1-2.858119 46.971908" fill="#850000" p-id="4934"></path><path d="M497.855753 72.441022l-52.733037-30.646214a437.381937 437.381937 0 0 1 50.877504-25.5435l52.733038 30.646214a437.381937 437.381937 0 0 0-50.952325 25.5435" fill="#CC0000" p-id="4935"></path><path d="M548.808077 46.897522l-52.733037-30.646214a258.786931 258.786931 0 0 1 30.750963-10.639385l52.733037 30.646215a253.534577 253.534577 0 0 0-30.750963 10.639384" fill="#C70000" p-id="4936"></path><path d="M579.55904 36.258138L526.826003 5.611923A171.502083 171.502083 0 0 1 545.890103 1.496831l52.733037 30.676143a171.502083 171.502083 0 0 0-19.0641 4.085164" fill="#C20000" p-id="4937"></path><path d="M598.62314 32.172974L545.890103 1.496831A133.074603 133.074603 0 0 1 559.941273 0.105182l52.733037 30.646214a133.074603 133.074603 0 0 0-14.096062 1.421578" fill="#BD0000" p-id="4938"></path><path d="M612.719202 30.751396L559.941273 0.105182a110.91296 110.91296 0 0 1 11.402546 0.089784l52.733037 30.646214a110.91296 110.91296 0 0 0-11.402546-0.089784" fill="#B80000" p-id="4939"></path><path d="M624.121748 30.84118L571.388711 0.194966a90.651742 90.651742 0 0 1 9.68169 1.137261l52.733037 30.646215a90.651742 90.651742 0 0 0-9.68169-1.137262" fill="#B30000" p-id="4940"></path><path d="M633.803438 31.978442L581.070401 1.332227a81.0748 81.0748 0 0 1 8.559392 1.960281l52.733037 30.646214a81.0748 81.0748 0 0 0-8.559392-1.96028" fill="#AD0000" p-id="4941"></path><path d="M642.36283 33.938722L589.629793 3.292508c1.062442 0.314243 2.10992 0.643451 3.142434 1.002586 1.496397 0.478847 2.858119 1.01755 4.249768 1.601145L649.725104 36.542454c-1.391649-0.583595-2.798263-1.122298-4.249768-1.601145-1.032514-0.359135-2.079992-0.688343-3.142434-1.002587" fill="#A80000" p-id="4942"></path><path d="M649.725104 36.542454L597.021995 5.896239a62.848682 62.848682 0 0 1 6.539256 3.187326l52.733037 30.646215a62.848682 62.848682 0 0 0-6.569184-3.187326" fill="#A30000" p-id="4943"></path><path d="M656.294288 39.72978L603.561251 9.083565l0.703307 0.404027 52.718073 30.646215-0.688343-0.404027" fill="#9E0000" p-id="4944"></path><path d="M325.785039 921.616504l-52.733037-30.646215-1.945316-682.372086 52.733037 30.646215 1.945316 682.372086z" fill="#880000" p-id="4945"></path><path d="M323.839723 239.244418L271.136614 208.598203c0-12.73434-2.843155-20.650281-8.439681-23.807679L315.400043 215.48163c5.596526 3.157398 8.409752 11.073339 8.43968 23.80768" fill="#850000" p-id="4946"></path><path d="M261.095788 237.224282L208.362751 206.578067 208.287931 178.535584l52.733037 30.646214 0.07482 28.042484z" fill="#880000" p-id="4947"></path><path d="M716.09032 734.492034l24.915013-14.350449V748.199033l-116.240134 67.113414-145.524627-326.513869-87.584128 50.563262 0.972658 343.632652q0 19.094028 10.47478 22.595598t27.174573-6.120265l25.034726-14.455197 0.074819 28.057448-192.06258 110.927924-0.07482-28.057447 25.049689-14.455197q20.949561-12.045997 29.19471-26.411411t8.29004-33.459441l-1.945316-682.357122c0-12.73434-2.843155-20.650281-8.43968-23.80768s-15.338071-0.703307-29.254566 7.332347l-25.049689 14.455197V209.196762l236.759965-136.75574q95.589853-55.187129 147.649511-37.499713t52.373902 112.933096q0.269351 95.350429-45.191195 174.09085t-103.49083 121.791768l125.353193 281.322673q8.349896 14.320521 18.734893 15.502675t22.805093-6.090337zM391.596588 511.319356l91.355049-52.748001q62.309979-35.913533 103.71529-102.952127t41.165886-157.795085q-0.22446-81.254368-37.754101-105.047083t-116.404738 21.712724l-45.69997 26.381482a80.042286 80.042286 0 0 0-26.93515 25.154437 60.708834 60.708834 0 0 0-10.295212 34.656559l0.86791 310.637094" fill="#FFCC00" p-id="4948"></path><path d="M261.020968 209.181798L208.287931 178.535584l236.849749-136.740776 52.718073 30.646214-236.834785 136.740776z" fill="#DB0000" p-id="4949"></path></svg>